<?xml version="1.0" encoding="UTF-8" standalone="no"?>
<!-- Created with Inkscape (http://www.inkscape.org/) -->

<svg
   xmlns:dc="http://purl.org/dc/elements/1.1/"
   xmlns:cc="http://creativecommons.org/ns#"
   xmlns:rdf="http://www.w3.org/1999/02/22-rdf-syntax-ns#"
   xmlns:svg="http://www.w3.org/2000/svg"
   xmlns="http://www.w3.org/2000/svg"
   xmlns:sodipodi="http://sodipodi.sourceforge.net/DTD/sodipodi-0.dtd"
   xmlns:inkscape="http://www.inkscape.org/namespaces/inkscape"
   width="192"
   height="192"
   viewBox="0 0 192 192"
   id="svg2"
   version="1.1"
   inkscape:version="0.91 r13725"
   sodipodi:docname="pogo-favicon.svg">
  <defs
     id="defs4" />
  <sodipodi:namedview
     id="base"
     pagecolor="#ffffff"
     bordercolor="#666666"
     borderopacity="1.0"
     inkscape:pageopacity="0.0"
     inkscape:pageshadow="2"
     inkscape:zoom="4.1041667"
     inkscape:cx="96"
     inkscape:cy="95.999997"
     inkscape:document-units="px"
     inkscape:current-layer="layer4"
     showgrid="true"
     inkscape:window-width="1920"
     inkscape:window-height="1017"
     inkscape:window-x="-8"
     inkscape:window-y="-8"
     inkscape:window-maximized="1"
     inkscape:snap-grids="true"
     inkscape:snap-to-guides="false"
     inkscape:snap-smooth-nodes="true"
     inkscape:object-paths="true"
     inkscape:object-nodes="true"
     inkscape:snap-intersection-paths="true"
     showguides="false"
     inkscape:guide-bbox="true"
     inkscape:showpageshadow="false"
     units="px"
     objecttolerance="16"
     gridtolerance="16"
     guidetolerance="16">
    <inkscape:grid
       type="xygrid"
       id="grid4302"
       empspacing="4"
       dotted="true" />
    <sodipodi:guide
       position="8,96"
       orientation="1,0"
       id="guide4391"
       inkscape:label=""
       inkscape:color="rgb(104,104,151)" />
    <sodipodi:guide
       position="184,96"
       orientation="1,0"
       id="guide4393"
       inkscape:label=""
       inkscape:color="rgb(117,117,160)" />
    <sodipodi:guide
       position="96,184"
       orientation="0,1"
       id="guide4395"
       inkscape:label=""
       inkscape:color="rgb(98,98,144)" />
    <sodipodi:guide
       position="96,8"
       orientation="0,1"
       id="guide4397"
       inkscape:label=""
       inkscape:color="rgb(105,105,153)" />
    <sodipodi:guide
       position="96,96"
       orientation="0,1"
       id="guide4399"
       inkscape:label=""
       inkscape:color="rgb(104,104,160)" />
    <sodipodi:guide
       position="96,96"
       orientation="1,0"
       id="guide4401"
       inkscape:label=""
       inkscape:color="rgb(105,105,148)" />
    <sodipodi:guide
       position="96,96"
       orientation="-0.70710678,-0.70710678"
       id="guide4405"
       inkscape:label=""
       inkscape:color="rgb(95,95,146)" />
    <sodipodi:guide
       position="48,96"
       orientation="1,0"
       id="guide4777"
       inkscape:label=""
       inkscape:color="rgb(108,108,155)" />
    <sodipodi:guide
       position="144,96"
       orientation="1,0"
       id="guide4779"
       inkscape:label=""
       inkscape:color="rgb(96,96,144)" />
    <sodipodi:guide
       position="96,48"
       orientation="0,1"
       id="guide4781"
       inkscape:label=""
       inkscape:color="rgb(104,104,151)" />
    <sodipodi:guide
       position="96,144"
       orientation="0,1"
       id="guide4783"
       inkscape:label=""
       inkscape:color="rgb(112,112,162)" />
    <sodipodi:guide
       position="144,144"
       orientation="-0.70710678,0.70710678"
       id="guide4848"
       inkscape:label=""
       inkscape:color="rgb(98,98,151)" />
  </sodipodi:namedview>
  <metadata
     id="metadata7">
    <rdf:RDF>
      <cc:Work
         rdf:about="">
        <dc:format>image/svg+xml</dc:format>
        <dc:type
           rdf:resource="http://purl.org/dc/dcmitype/StillImage" />
        <dc:title></dc:title>
      </cc:Work>
    </rdf:RDF>
  </metadata>
  <g
     inkscape:groupmode="layer"
     id="layer9"
     inkscape:label="Shadow"
     style="display:none"
     transform="translate(0,-860.36218)">
    <circle
       style="opacity:0.1;fill:#003333;fill-opacity:1;stroke:none;stroke-width:4;stroke-linecap:round;stroke-linejoin:round;stroke-miterlimit:4;stroke-dasharray:none;stroke-dashoffset:0;stroke-opacity:1"
       id="path4895"
       cx="96"
       cy="956.36218"
       r="96" />
  </g>
  <g
     inkscape:groupmode="layer"
     id="layer8"
     inkscape:label="Background"
     style="display:none"
     transform="translate(0,-860.36218)">
    <path
       style="fill:none;fill-rule:evenodd;stroke:none;stroke-width:1px;stroke-linecap:butt;stroke-linejoin:miter;stroke-opacity:1"
       d="m 52,908.36218 -4,0 0,16 4,0 0,-16"
       id="path5033"
       inkscape:connector-curvature="0" />
    <path
       style="opacity:1;fill:#ffffff;fill-opacity:1;stroke:none;stroke-width:4;stroke-linecap:round;stroke-linejoin:round;stroke-miterlimit:4;stroke-dasharray:none;stroke-dashoffset:0;stroke-opacity:1"
       d="m 96,8 a 88,88 0 0 0 -7.494141,0.375 88,88 0 0 0 -4.398437,0.5332031 88,88 0 0 0 -4.306641,0.6523438 88,88 0 0 0 -4.328125,0.9707031 88,88 0 0 0 -4.21875,1.076172 88,88 0 0 0 -4.203125,1.396484 88,88 0 0 0 -4.111328,1.501953 88,88 0 0 0 -4.015625,1.796875 88,88 0 0 0 -3.955078,1.91211 88,88 0 0 0 -3.816406,2.1875 88,88 0 0 0 -3.744141,2.294922 88,88 0 0 0 -3.580078,2.560546 88,88 0 0 0 -3.492187,2.65625 88,88 0 0 0 -3.314454,2.910157 88,88 0 0 0 -3.208984,2.988281 88,88 0 0 0 -2.988281,3.208984 88,88 0 0 0 -2.910157,3.314454 88,88 0 0 0 -2.65625,3.492187 88,88 0 0 0 -2.560546,3.580078 88,88 0 0 0 -2.294922,3.744141 88,88 0 0 0 -2.1875,3.816406 88,88 0 0 0 -1.91211,3.955078 88,88 0 0 0 -1.796875,4.015625 88,88 0 0 0 -1.501953,4.111328 88,88 0 0 0 -1.396484,4.203125 88,88 0 0 0 -1.076172,4.21875 A 88,88 0 0 0 9.5605469,79.800781 88,88 0 0 0 8.9082031,84.107422 88,88 0 0 0 8.375,88.505859 88,88 0 0 0 8,96 a 88,88 0 0 0 0.375,7.49414 88,88 0 0 0 0.5332031,4.39844 88,88 0 0 0 0.6523438,4.30664 88,88 0 0 0 0.9707031,4.32812 88,88 0 0 0 1.076172,4.21875 88,88 0 0 0 1.396484,4.20313 88,88 0 0 0 1.501953,4.11133 88,88 0 0 0 1.796875,4.01562 88,88 0 0 0 1.91211,3.95508 88,88 0 0 0 2.1875,3.81641 88,88 0 0 0 2.294922,3.74414 88,88 0 0 0 2.560546,3.58008 88,88 0 0 0 2.65625,3.49218 88,88 0 0 0 2.910157,3.31446 88,88 0 0 0 2.988281,3.20898 88,88 0 0 0 3.208984,2.98828 88,88 0 0 0 3.314454,2.91016 88,88 0 0 0 3.492187,2.65625 88,88 0 0 0 3.580078,2.56054 88,88 0 0 0 3.744141,2.29493 88,88 0 0 0 3.816406,2.1875 88,88 0 0 0 3.955078,1.91211 88,88 0 0 0 4.015625,1.79687 88,88 0 0 0 4.111328,1.50195 88,88 0 0 0 4.203125,1.39649 88,88 0 0 0 4.21875,1.07617 88,88 0 0 0 4.328125,0.9707 88,88 0 0 0 4.306641,0.65235 88,88 0 0 0 4.398437,0.5332 A 88,88 0 0 0 96,184 a 88,88 0 0 0 7.49414,-0.375 88,88 0 0 0 4.39844,-0.5332 88,88 0 0 0 4.30664,-0.65235 88,88 0 0 0 4.32812,-0.9707 88,88 0 0 0 4.21875,-1.07617 88,88 0 0 0 4.20313,-1.39649 88,88 0 0 0 4.11133,-1.50195 88,88 0 0 0 4.01562,-1.79687 88,88 0 0 0 3.95508,-1.91211 88,88 0 0 0 3.81641,-2.1875 88,88 0 0 0 3.74414,-2.29493 88,88 0 0 0 3.58008,-2.56054 88,88 0 0 0 3.49218,-2.65625 88,88 0 0 0 3.31446,-2.91016 88,88 0 0 0 3.20898,-2.98828 88,88 0 0 0 2.98828,-3.20898 88,88 0 0 0 2.91016,-3.31446 88,88 0 0 0 2.65625,-3.49218 88,88 0 0 0 2.56054,-3.58008 88,88 0 0 0 2.29493,-3.74414 88,88 0 0 0 2.1875,-3.81641 88,88 0 0 0 1.91211,-3.95508 88,88 0 0 0 1.79687,-4.01562 88,88 0 0 0 1.50195,-4.11133 88,88 0 0 0 1.39649,-4.20313 88,88 0 0 0 1.07617,-4.21875 88,88 0 0 0 0.9707,-4.32812 88,88 0 0 0 0.65235,-4.30664 88,88 0 0 0 0.5332,-4.39844 A 88,88 0 0 0 184,96 a 88,88 0 0 0 -0.375,-7.494141 88,88 0 0 0 -0.5332,-4.398437 88,88 0 0 0 -0.65235,-4.306641 88,88 0 0 0 -0.9707,-4.328125 88,88 0 0 0 -1.07617,-4.21875 88,88 0 0 0 -1.39649,-4.203125 88,88 0 0 0 -1.50195,-4.111328 88,88 0 0 0 -1.79687,-4.015625 88,88 0 0 0 -1.91211,-3.955078 88,88 0 0 0 -2.1875,-3.816406 88,88 0 0 0 -2.29493,-3.744141 88,88 0 0 0 -2.56054,-3.580078 88,88 0 0 0 -2.65625,-3.492187 88,88 0 0 0 -2.91016,-3.314454 88,88 0 0 0 -2.98828,-3.208984 88,88 0 0 0 -3.20898,-2.988281 88,88 0 0 0 -3.31446,-2.910157 88,88 0 0 0 -3.49218,-2.65625 88,88 0 0 0 -3.58008,-2.560546 88,88 0 0 0 -3.74414,-2.294922 88,88 0 0 0 -3.81641,-2.1875 88,88 0 0 0 -3.95508,-1.91211 88,88 0 0 0 -4.01562,-1.796875 88,88 0 0 0 -4.11133,-1.501953 88,88 0 0 0 -4.20313,-1.396484 A 88,88 0 0 0 116.52734,10.53125 88,88 0 0 0 112.19922,9.5605469 88,88 0 0 0 107.89258,8.9082031 88,88 0 0 0 103.49414,8.375 88,88 0 0 0 96,8 Z"
       id="path4865"
       inkscape:connector-curvature="0"
       transform="translate(0,860.36218)" />
    <rect
       style="opacity:1;fill:#280b0b;fill-opacity:1;stroke:none;stroke-width:1000;stroke-linecap:round;stroke-linejoin:round;stroke-miterlimit:4;stroke-dasharray:none;stroke-dashoffset:0;stroke-opacity:1"
       id="rect4759"
       width="192"
       height="192"
       x="0"
       y="860.36218" />
  </g>
  <g
     inkscape:groupmode="layer"
     id="layer2"
     inkscape:label="Top"
     style="display:inline"
     transform="translate(0,-860.36218)">
    <path
       style="display:inline;opacity:1;fill:#ff7f7f;fill-opacity:1;stroke:none;stroke-width:4;stroke-linecap:round;stroke-linejoin:round;stroke-miterlimit:4;stroke-dasharray:none;stroke-dashoffset:0;stroke-opacity:1"
       d="M 96 8 C 93.497758 8.018394 90.997438 8.1435076 88.505859 8.375 C 87.035471 8.5157915 85.56886 8.6935822 84.107422 8.9082031 C 82.666713 9.0900844 81.230726 9.3075989 79.800781 9.5605469 C 78.350146 9.8476975 76.906979 10.171368 75.472656 10.53125 C 74.057746 10.855126 72.651065 11.21396 71.253906 11.607422 C 69.84137 12.03758 68.439885 12.503222 67.050781 13.003906 C 65.668097 13.470392 64.297231 13.971198 62.939453 14.505859 C 61.586147 15.07126 60.247187 15.670406 58.923828 16.302734 C 57.589763 16.907093 56.270992 17.544661 54.96875 18.214844 C 53.678586 18.912097 52.406053 19.641491 51.152344 20.402344 C 49.885401 21.136053 48.636965 21.901265 47.408203 22.697266 C 46.193682 23.520799 44.999949 24.374582 43.828125 25.257812 C 42.642167 26.114068 41.477742 26.999759 40.335938 27.914062 C 39.206978 28.856271 38.101814 29.826627 37.021484 30.824219 C 35.927168 31.793504 34.857175 32.789907 33.8125 33.8125 C 32.789907 34.857175 31.793504 35.927168 30.824219 37.021484 C 29.826627 38.101814 28.856271 39.206979 27.914062 40.335938 C 26.999759 41.477742 26.114067 42.642167 25.257812 43.828125 C 24.374582 44.999949 23.520799 46.193682 22.697266 47.408203 C 21.901265 48.636965 21.136053 49.885401 20.402344 51.152344 C 19.641491 52.406053 18.912097 53.678586 18.214844 54.96875 C 17.544661 56.270992 16.907093 57.589763 16.302734 58.923828 C 15.670406 60.247187 15.07126 61.586147 14.505859 62.939453 C 13.971198 64.297231 13.470392 65.668097 13.003906 67.050781 C 12.503222 68.439885 12.03758 69.84137 11.607422 71.253906 C 11.21396 72.651065 10.855126 74.057746 10.53125 75.472656 C 10.171368 76.906979 9.8476975 78.350146 9.5605469 79.800781 C 9.3075989 81.230726 9.0900844 82.666713 8.9082031 84.107422 C 8.6935822 85.56886 8.5157915 87.035471 8.375 88.505859 C 8.2932574 89.669293 8.234652 90.834237 8.1992188 92 L 72.339844 92 A 24 24 0 0 1 96 72 A 24 24 0 0 1 119.63867 92 L 183.80078 92 C 183.76538 90.834237 183.70678 89.669293 183.625 88.505859 C 183.48421 87.035471 183.30642 85.56886 183.0918 84.107422 C 182.90992 82.666712 182.6924 81.230726 182.43945 79.800781 C 182.1523 78.350146 181.82863 76.906979 181.46875 75.472656 C 181.14487 74.057746 180.78604 72.651065 180.39258 71.253906 C 179.96242 69.84137 179.49678 68.439885 178.99609 67.050781 C 178.52961 65.668097 178.0288 64.297231 177.49414 62.939453 C 176.92874 61.586147 176.3296 60.247187 175.69727 58.923828 C 175.09291 57.589763 174.45534 56.270992 173.78516 54.96875 C 173.08791 53.678586 172.35851 52.406053 171.59766 51.152344 C 170.86395 49.885401 170.09873 48.636965 169.30273 47.408203 C 168.4792 46.193682 167.62542 44.999949 166.74219 43.828125 C 165.88593 42.642167 165.00024 41.477742 164.08594 40.335938 C 163.14373 39.206978 162.17337 38.101814 161.17578 37.021484 C 160.2065 35.927168 159.21009 34.857175 158.1875 33.8125 C 157.14283 32.789907 156.07283 31.793504 154.97852 30.824219 C 153.89819 29.826627 152.79302 28.856271 151.66406 27.914062 C 150.52226 26.999759 149.35784 26.114067 148.17188 25.257812 C 147.00006 24.374582 145.80632 23.520799 144.5918 22.697266 C 143.36304 21.901265 142.1146 21.136053 140.84766 20.402344 C 139.59395 19.641491 138.32142 18.912096 137.03125 18.214844 C 135.72901 17.544661 134.41024 16.907093 133.07617 16.302734 C 131.75281 15.670406 130.41385 15.07126 129.06055 14.505859 C 127.70277 13.971197 126.3319 13.470392 124.94922 13.003906 C 123.56011 12.503222 122.15863 12.03758 120.74609 11.607422 C 119.34893 11.21396 117.94225 10.855126 116.52734 10.53125 C 115.09302 10.171368 113.64985 9.8476976 112.19922 9.5605469 C 110.76928 9.307599 109.33329 9.0900844 107.89258 8.9082031 C 106.43114 8.6935821 104.96453 8.5157914 103.49414 8.375 C 101.00256 8.1435077 98.502242 8.0183939 96 8 z "
       transform="translate(0,860.36218)"
       id="path4946" />
  </g>
  <g
     inkscape:groupmode="layer"
     id="layer4"
     inkscape:label="Bottom">
    <path
       style="display:inline;opacity:1;fill:#ffffff;fill-opacity:1;stroke:none;stroke-width:4;stroke-linecap:round;stroke-linejoin:round;stroke-miterlimit:4;stroke-dasharray:none;stroke-dashoffset:0;stroke-opacity:1"
       d="M 8.1992188 100 C 8.2346517 101.16576 8.2932578 102.33071 8.375 103.49414 C 8.5157914 104.96453 8.6935821 106.43114 8.9082031 107.89258 C 9.0900844 109.33329 9.307599 110.76928 9.5605469 112.19922 C 9.8476976 113.64985 10.171368 115.09302 10.53125 116.52734 C 10.855126 117.94225 11.21396 119.34893 11.607422 120.74609 C 12.03758 122.15863 12.503222 123.56011 13.003906 124.94922 C 13.470392 126.3319 13.971197 127.70277 14.505859 129.06055 C 15.07126 130.41385 15.670406 131.75281 16.302734 133.07617 C 16.907093 134.41024 17.544661 135.72901 18.214844 137.03125 C 18.912096 138.32142 19.641491 139.59395 20.402344 140.84766 C 21.136053 142.1146 21.901265 143.36304 22.697266 144.5918 C 23.520799 145.80632 24.374582 147.00005 25.257812 148.17188 C 26.114068 149.35783 26.999759 150.52226 27.914062 151.66406 C 28.856271 152.79302 29.826627 153.89819 30.824219 154.97852 C 31.793504 156.07283 32.789907 157.14283 33.8125 158.1875 C 34.857175 159.21009 35.927168 160.2065 37.021484 161.17578 C 38.101814 162.17337 39.206979 163.14373 40.335938 164.08594 C 41.477742 165.00024 42.642167 165.88593 43.828125 166.74219 C 44.999949 167.62542 46.193682 168.4792 47.408203 169.30273 C 48.636965 170.09873 49.885401 170.86395 51.152344 171.59766 C 52.406053 172.35851 53.678586 173.08791 54.96875 173.78516 C 56.270992 174.45534 57.589763 175.09291 58.923828 175.69727 C 60.247187 176.3296 61.586147 176.92874 62.939453 177.49414 C 64.297231 178.0288 65.668097 178.52961 67.050781 178.99609 C 68.439885 179.49678 69.84137 179.96242 71.253906 180.39258 C 72.651065 180.78604 74.057746 181.14487 75.472656 181.46875 C 76.906979 181.82863 78.350146 182.1523 79.800781 182.43945 C 81.230726 182.6924 82.666712 182.90992 84.107422 183.0918 C 85.56886 183.30642 87.035471 183.48421 88.505859 183.625 C 90.997438 183.85649 93.497758 183.98161 96 184 C 98.502242 183.9816 101.00256 183.85649 103.49414 183.625 C 104.96453 183.48421 106.43114 183.30642 107.89258 183.0918 C 109.33329 182.90992 110.76928 182.6924 112.19922 182.43945 C 113.64985 182.1523 115.09302 181.82863 116.52734 181.46875 C 117.94225 181.14487 119.34893 180.78604 120.74609 180.39258 C 122.15863 179.96242 123.56011 179.49678 124.94922 178.99609 C 126.3319 178.52961 127.70277 178.0288 129.06055 177.49414 C 130.41385 176.92874 131.75281 176.3296 133.07617 175.69727 C 134.41024 175.09291 135.72901 174.45534 137.03125 173.78516 C 138.32142 173.08791 139.59395 172.35851 140.84766 171.59766 C 142.1146 170.86395 143.36304 170.09873 144.5918 169.30273 C 145.80632 168.4792 147.00005 167.62542 148.17188 166.74219 C 149.35783 165.88593 150.52226 165.00024 151.66406 164.08594 C 152.79302 163.14373 153.89819 162.17337 154.97852 161.17578 C 156.07283 160.2065 157.14283 159.21009 158.1875 158.1875 C 159.21009 157.14283 160.2065 156.07283 161.17578 154.97852 C 162.17337 153.89819 163.14373 152.79302 164.08594 151.66406 C 165.00024 150.52226 165.88593 149.35784 166.74219 148.17188 C 167.62542 147.00006 168.4792 145.80632 169.30273 144.5918 C 170.09873 143.36304 170.86395 142.1146 171.59766 140.84766 C 172.35851 139.59395 173.08791 138.32142 173.78516 137.03125 C 174.45534 135.72901 175.09291 134.41024 175.69727 133.07617 C 176.3296 131.75281 176.92874 130.41385 177.49414 129.06055 C 178.0288 127.70277 178.52961 126.3319 178.99609 124.94922 C 179.49678 123.56011 179.96242 122.15863 180.39258 120.74609 C 180.78604 119.34893 181.14487 117.94225 181.46875 116.52734 C 181.82863 115.09302 182.1523 113.64985 182.43945 112.19922 C 182.6924 110.76928 182.90992 109.33329 183.0918 107.89258 C 183.30642 106.43114 183.48421 104.96453 183.625 103.49414 C 183.7067 102.33071 183.76535 101.16576 183.80078 100 L 119.66016 100 A 24 24 0 0 1 96 120 A 24 24 0 0 1 72.361328 100 L 8.1992188 100 z "
       id="path4168" />
  </g>
  <g
     inkscape:label="Circle"
     inkscape:groupmode="layer"
     id="layer1"
     style="display:inline"
     transform="translate(0,-860.36218)">
    <path
       style="display:inline;opacity:1;fill:#ffffff;fill-opacity:1;stroke:none;stroke-width:1.10000002;stroke-linecap:butt;stroke-linejoin:round;stroke-miterlimit:4;stroke-dasharray:2.2, 2.2;stroke-dashoffset:0;stroke-opacity:1"
       id="path4407-0-6-6-9"
       r="12"
       cy="944.36218"
       cx="60"
       d=""
       inkscape:connector-curvature="0" />
    <circle
       style="opacity:1;fill:#ffffff;fill-opacity:1;stroke:none;stroke-width:1000;stroke-linecap:round;stroke-linejoin:round;stroke-miterlimit:4;stroke-dasharray:none;stroke-dashoffset:0;stroke-opacity:1"
       id="path4751"
       cx="96"
       cy="956.36218"
       r="16" />
  </g>
  <g
     inkscape:groupmode="layer"
     id="layer3"
     inkscape:label="X"
     style="display:none"
     transform="translate(0,-860.36218)">
    <path
       inkscape:connector-curvature="0"
       id="path4860"
       d="m 72,930.36218 a 2,2 0 0 0 -2,2 2,2 0 0 0 0.585938,1.41406 l 22.585934,22.58594 -22.56445,22.56445 a 2,2 0 0 0 -0.02148,0.0215 A 2,2 0 0 0 70,980.36218 a 2,2 0 0 0 2,2 2,2 0 0 0 1.414062,-0.58594 l 22.58594,-22.58593 22.564448,22.56445 a 2,2 0 0 0 0.0215,0.0215 2,2 0 0 0 1.41405,0.58592 2,2 0 0 0 2,-2 2,2 0 0 0 -0.58594,-1.41406 L 98.828122,956.36218 121.39258,933.79773 a 2,2 0 0 0 0.0215,-0.0215 2,2 0 0 0 0.58592,-1.41407 2,2 0 0 0 -2,-2 2,2 0 0 0 -1.41406,0.58594 L 96.000002,953.53406 73.435547,930.9696 a 2,2 0 0 0 -0.02149,-0.0215 2,2 0 0 0 -1.414062,-0.58594 z"
       style="display:inline;opacity:1;fill:#ba8797;fill-opacity:1;stroke:none;stroke-width:4;stroke-linecap:round;stroke-linejoin:round;stroke-miterlimit:4;stroke-dasharray:none;stroke-dashoffset:0;stroke-opacity:1" />
    <path
       style="display:inline;opacity:1;fill:#baa7b0;fill-opacity:1;stroke:none;stroke-width:4;stroke-linecap:round;stroke-linejoin:round;stroke-miterlimit:4;stroke-dasharray:none;stroke-dashoffset:0;stroke-opacity:1"
       d="m 72,69 a 3,3 0 0 0 -3,3 3,3 0 0 0 0.880859,2.119141 l -0.002,0.002 L 91.757812,96 l -21.847656,21.84766 -0.03125,0.0312 0.002,0.002 A 3,3 0 0 0 69,120 a 3,3 0 0 0 3,3 3,3 0 0 0 2.119141,-0.88086 l 0.002,0.002 L 96,100.24219 l 21.84766,21.84765 0.0312,0.0312 0.002,-0.002 A 3,3 0 0 0 120,123 a 3,3 0 0 0 3,-3 3,3 0 0 0 -0.88086,-2.11914 l 0.002,-0.002 L 100.24219,96 l 21.84765,-21.847656 0.0312,-0.03125 -0.002,-0.002 A 3,3 0 0 0 123,72 a 3,3 0 0 0 -3,-3 3,3 0 0 0 -2.11914,0.880859 l -0.002,-0.002 L 96,91.757812 74.152344,69.910156 l -0.03125,-0.03125 -0.002,0.002 A 3,3 0 0 0 72,69 Z"
       id="rect4897"
       transform="translate(0,860.36218)"
       inkscape:connector-curvature="0" />
  </g>
</svg>
