<?xml version="1.0" encoding="UTF-8" standalone="no"?>
<!-- Created with Inkscape (http://www.inkscape.org/) -->

<svg
   xmlns:dc="http://purl.org/dc/elements/1.1/"
   xmlns:cc="http://creativecommons.org/ns#"
   xmlns:rdf="http://www.w3.org/1999/02/22-rdf-syntax-ns#"
   xmlns:svg="http://www.w3.org/2000/svg"
   xmlns="http://www.w3.org/2000/svg"
   xmlns:xlink="http://www.w3.org/1999/xlink"
   xmlns:sodipodi="http://sodipodi.sourceforge.net/DTD/sodipodi-0.dtd"
   xmlns:inkscape="http://www.inkscape.org/namespaces/inkscape"
   width="192"
   height="192"
   viewBox="0 0 192 192"
   id="svg2"
   version="1.1"
   inkscape:version="0.91 r13725"
   sodipodi:docname="pogo-close-icon.svg">
  <defs
     id="defs4">
    <linearGradient
       inkscape:collect="always"
       id="linearGradient4875">
      <stop
         style="stop-color:#b1f397;stop-opacity:1"
         offset="0"
         id="stop4877" />
      <stop
         style="stop-color:#45bab1;stop-opacity:1"
         offset="1"
         id="stop4879" />
    </linearGradient>
    <linearGradient
       inkscape:collect="always"
       xlink:href="#linearGradient4875"
       id="linearGradient4881"
       x1="8"
       y1="868.36218"
       x2="184"
       y2="1044.3622"
       gradientUnits="userSpaceOnUse" />
  </defs>
  <sodipodi:namedview
     id="base"
     pagecolor="#ffffff"
     bordercolor="#666666"
     borderopacity="1.0"
     inkscape:pageopacity="0.0"
     inkscape:pageshadow="2"
     inkscape:zoom="4.1041667"
     inkscape:cx="96"
     inkscape:cy="95.999997"
     inkscape:document-units="px"
     inkscape:current-layer="layer1"
     showgrid="false"
     inkscape:window-width="1920"
     inkscape:window-height="1017"
     inkscape:window-x="-8"
     inkscape:window-y="-8"
     inkscape:window-maximized="1"
     inkscape:snap-grids="true"
     inkscape:snap-to-guides="false"
     inkscape:snap-smooth-nodes="true"
     inkscape:object-paths="true"
     inkscape:object-nodes="true"
     inkscape:snap-intersection-paths="true"
     showguides="false"
     inkscape:guide-bbox="true"
     inkscape:showpageshadow="false"
     units="px"
     objecttolerance="16"
     gridtolerance="16"
     guidetolerance="16">
    <inkscape:grid
       type="xygrid"
       id="grid4302"
       empspacing="4"
       dotted="true" />
    <sodipodi:guide
       position="8,96"
       orientation="1,0"
       id="guide4391"
       inkscape:label=""
       inkscape:color="rgb(104,104,151)" />
    <sodipodi:guide
       position="184,96"
       orientation="1,0"
       id="guide4393"
       inkscape:label=""
       inkscape:color="rgb(117,117,160)" />
    <sodipodi:guide
       position="96,184"
       orientation="0,1"
       id="guide4395"
       inkscape:label=""
       inkscape:color="rgb(98,98,144)" />
    <sodipodi:guide
       position="96,8"
       orientation="0,1"
       id="guide4397"
       inkscape:label=""
       inkscape:color="rgb(105,105,153)" />
    <sodipodi:guide
       position="96,96"
       orientation="0,1"
       id="guide4399"
       inkscape:label=""
       inkscape:color="rgb(104,104,160)" />
    <sodipodi:guide
       position="96,96"
       orientation="1,0"
       id="guide4401"
       inkscape:label=""
       inkscape:color="rgb(105,105,148)" />
    <sodipodi:guide
       position="96,96"
       orientation="-0.70710678,-0.70710678"
       id="guide4405"
       inkscape:label=""
       inkscape:color="rgb(95,95,146)" />
    <sodipodi:guide
       position="48,96"
       orientation="1,0"
       id="guide4777"
       inkscape:label=""
       inkscape:color="rgb(108,108,155)" />
    <sodipodi:guide
       position="144,96"
       orientation="1,0"
       id="guide4779"
       inkscape:label=""
       inkscape:color="rgb(96,96,144)" />
    <sodipodi:guide
       position="96,48"
       orientation="0,1"
       id="guide4781"
       inkscape:label=""
       inkscape:color="rgb(104,104,151)" />
    <sodipodi:guide
       position="96,144"
       orientation="0,1"
       id="guide4783"
       inkscape:label=""
       inkscape:color="rgb(112,112,162)" />
    <sodipodi:guide
       position="144,144"
       orientation="-0.70710678,0.70710678"
       id="guide4848"
       inkscape:label=""
       inkscape:color="rgb(98,98,151)" />
  </sodipodi:namedview>
  <metadata
     id="metadata7">
    <rdf:RDF>
      <cc:Work
         rdf:about="">
        <dc:format>image/svg+xml</dc:format>
        <dc:type
           rdf:resource="http://purl.org/dc/dcmitype/StillImage" />
        <dc:title></dc:title>
      </cc:Work>
    </rdf:RDF>
  </metadata>
  <g
     inkscape:groupmode="layer"
     id="layer9"
     inkscape:label="Shadow"
     style="display:inline"
     transform="translate(0,-860.36218)">
    <circle
       style="opacity:0.1;fill:#003333;fill-opacity:1;stroke:none;stroke-width:4;stroke-linecap:round;stroke-linejoin:round;stroke-miterlimit:4;stroke-dasharray:none;stroke-dashoffset:0;stroke-opacity:1"
       id="path4895"
       cx="96"
       cy="956.36218"
       r="96" />
  </g>
  <g
     inkscape:groupmode="layer"
     id="layer8"
     inkscape:label="Background"
     style="display:inline"
     transform="translate(0,-860.36218)">
    <path
       style="fill:none;fill-rule:evenodd;stroke:none;stroke-width:1px;stroke-linecap:butt;stroke-linejoin:miter;stroke-opacity:1"
       d="m 52,908.36218 -4,0 0,16 4,0 0,-16"
       id="path5033"
       inkscape:connector-curvature="0" />
    <circle
       style="opacity:1;fill:url(#linearGradient4881);fill-opacity:1.0;stroke:none;stroke-width:4;stroke-linecap:round;stroke-linejoin:round;stroke-miterlimit:4;stroke-dasharray:none;stroke-dashoffset:0;stroke-opacity:1"
       id="path4865"
       cx="96"
       cy="956.36218"
       r="88" />
  </g>
  <g
     inkscape:groupmode="layer"
     id="layer2"
     inkscape:label="Ring"
     style="display:inline"
     transform="translate(0,-860.36218)">
    <path
       style="display:inline;opacity:1;fill:#1d8797;fill-opacity:1;stroke:none;stroke-width:1.10000002;stroke-linecap:butt;stroke-linejoin:round;stroke-miterlimit:4;stroke-dasharray:none;stroke-dashoffset:0;stroke-opacity:1"
       d="M 96,8 A 88,88 0 0 0 8,96 88,88 0 0 0 96,184 88,88 0 0 0 184,96 88,88 0 0 0 96,8 Z m 0,20 A 68,68 0 0 1 164,96 68,68 0 0 1 96,164 68,68 0 0 1 28,96 68,68 0 0 1 96,28 Z"
       transform="translate(0,860.36218)"
       id="path4556-33-0"
       inkscape:connector-curvature="0" />
  </g>
  <g
     inkscape:label="Circle"
     inkscape:groupmode="layer"
     id="layer1"
     style="display:inline"
     transform="translate(0,-860.36218)">
    <path
       style="display:inline;opacity:1;fill:#ffffff;fill-opacity:1;stroke:none;stroke-width:1.10000002;stroke-linecap:butt;stroke-linejoin:round;stroke-miterlimit:4;stroke-dasharray:2.2, 2.2;stroke-dashoffset:0;stroke-opacity:1"
       id="path4407-0-6-6-9"
       r="12"
       cy="944.36218"
       cx="60"
       d=""
       inkscape:connector-curvature="0" />
    <path
       style="display:inline;opacity:1;fill:#1d8797;fill-opacity:1;stroke:none;stroke-width:1.10000002;stroke-linecap:butt;stroke-linejoin:round;stroke-miterlimit:4;stroke-dasharray:none;stroke-dashoffset:0;stroke-opacity:1"
       d="M 96 34 A 62.000007 61.999925 0 0 0 34 96 A 62.000007 61.999925 0 0 0 96 158 A 62.000007 61.999925 0 0 0 158 96 A 62.000007 61.999925 0 0 0 96 34 z M 72 69 A 3 3 0 0 1 74.119141 69.880859 L 74.121094 69.878906 L 74.152344 69.910156 L 96 91.757812 L 117.87891 69.878906 L 117.88086 69.880859 A 3 3 0 0 1 120 69 A 3 3 0 0 1 123 72 A 3 3 0 0 1 122.11914 74.119141 L 122.12109 74.121094 L 122.08984 74.152344 L 100.24219 96 L 122.12109 117.87891 L 122.11914 117.88086 A 3 3 0 0 1 123 120 A 3 3 0 0 1 120 123 A 3 3 0 0 1 117.88086 122.11914 L 117.87891 122.12109 L 117.84766 122.08984 L 96 100.24219 L 74.121094 122.12109 L 74.119141 122.11914 A 3 3 0 0 1 72 123 A 3 3 0 0 1 69 120 A 3 3 0 0 1 69.880859 117.88086 L 69.878906 117.87891 L 69.910156 117.84766 L 91.757812 96 L 69.878906 74.121094 L 69.880859 74.119141 A 3 3 0 0 1 69 72 A 3 3 0 0 1 72 69 z "
       transform="translate(0,860.36218)"
       id="path4556-33" />
  </g>
  <g
     inkscape:groupmode="layer"
     id="layer3"
     inkscape:label="X"
     style="display:none"
     transform="translate(0,-860.36218)">
    <path
       inkscape:connector-curvature="0"
       id="path4860"
       d="m 72,930.36218 a 2,2 0 0 0 -2,2 2,2 0 0 0 0.585938,1.41406 l 22.585934,22.58594 -22.56445,22.56445 a 2,2 0 0 0 -0.02148,0.0215 A 2,2 0 0 0 70,980.36218 a 2,2 0 0 0 2,2 2,2 0 0 0 1.414062,-0.58594 l 22.58594,-22.58593 22.564448,22.56445 a 2,2 0 0 0 0.0215,0.0215 2,2 0 0 0 1.41405,0.58592 2,2 0 0 0 2,-2 2,2 0 0 0 -0.58594,-1.41406 L 98.828122,956.36218 121.39258,933.79773 a 2,2 0 0 0 0.0215,-0.0215 2,2 0 0 0 0.58592,-1.41407 2,2 0 0 0 -2,-2 2,2 0 0 0 -1.41406,0.58594 L 96.000002,953.53406 73.435547,930.9696 a 2,2 0 0 0 -0.02149,-0.0215 2,2 0 0 0 -1.414062,-0.58594 z"
       style="display:inline;opacity:1;fill:#ba8797;fill-opacity:1;stroke:none;stroke-width:4;stroke-linecap:round;stroke-linejoin:round;stroke-miterlimit:4;stroke-dasharray:none;stroke-dashoffset:0;stroke-opacity:1" />
    <path
       style="display:inline;opacity:1;fill:#baa7b0;fill-opacity:1;stroke:none;stroke-width:4;stroke-linecap:round;stroke-linejoin:round;stroke-miterlimit:4;stroke-dasharray:none;stroke-dashoffset:0;stroke-opacity:1"
       d="m 72,69 a 3,3 0 0 0 -3,3 3,3 0 0 0 0.880859,2.119141 l -0.002,0.002 L 91.757812,96 l -21.847656,21.84766 -0.03125,0.0312 0.002,0.002 A 3,3 0 0 0 69,120 a 3,3 0 0 0 3,3 3,3 0 0 0 2.119141,-0.88086 l 0.002,0.002 L 96,100.24219 l 21.84766,21.84765 0.0312,0.0312 0.002,-0.002 A 3,3 0 0 0 120,123 a 3,3 0 0 0 3,-3 3,3 0 0 0 -0.88086,-2.11914 l 0.002,-0.002 L 100.24219,96 l 21.84765,-21.847656 0.0312,-0.03125 -0.002,-0.002 A 3,3 0 0 0 123,72 a 3,3 0 0 0 -3,-3 3,3 0 0 0 -2.11914,0.880859 l -0.002,-0.002 L 96,91.757812 74.152344,69.910156 l -0.03125,-0.03125 -0.002,0.002 A 3,3 0 0 0 72,69 Z"
       id="rect4897"
       transform="translate(0,860.36218)"
       inkscape:connector-curvature="0" />
  </g>
</svg>
